<svg width="33" height="33" viewBox="0 0 33 33" fill="none" xmlns="http://www.w3.org/2000/svg">
<path d="M26.0425 7.45251L18.9337 3.34126C17.5725 2.55751 15.4412 2.55751 14.08 3.34126L6.90249 7.48001C4.05624 9.40501 3.89124 9.69376 3.89124 12.76V20.2263C3.89124 23.2925 4.05624 23.595 6.95749 25.5475L14.0662 29.6588C14.7537 30.0575 15.6337 30.25 16.5 30.25C17.3662 30.25 18.2462 30.0575 18.92 29.6588L26.0975 25.52C28.9437 23.595 29.1087 23.3063 29.1087 20.24V12.76C29.1087 9.69376 28.9437 9.40501 26.0425 7.45251Z" fill="#6956E5"/>
<path d="M16.5 20.9688C18.968 20.9688 20.9688 18.968 20.9688 16.5C20.9688 14.032 18.968 12.0312 16.5 12.0312C14.032 12.0312 12.0312 14.032 12.0312 16.5C12.0312 18.968 14.032 20.9688 16.5 20.9688Z" fill="white"/>
</svg>
